<?xml version="1.0" encoding="utf-8"?>
<!-- Generator: Adobe Illustrator 15.0.0, SVG Export Plug-In . SVG Version: 6.00 Build 0)  -->
<!DOCTYPE svg PUBLIC "-//W3C//DTD SVG 1.1//EN" "http://www.w3.org/Graphics/SVG/1.1/DTD/svg11.dtd">
<svg version="1.1" id="Layer_2" xmlns="http://www.w3.org/2000/svg" xmlns:xlink="http://www.w3.org/1999/xlink" x="0px" y="0px"
	 width="360px" height="360px" viewBox="0 0 360 360" enable-background="new 0 0 360 360" xml:space="preserve">
<path fill="#F2E7B8" d="M322.309,262.309c-11.743-7.676-23.781-14.88-35.668-22.332c-13.492-8.461-26.828-17.18-40.517-25.322
	c-8.647-5.146-17.356-10.193-25.96-15.415c-0.878-0.313-1.76-0.623-2.637-0.939c20.633,14.771,40.051,31.287,60.494,46.315
	c11.554,8.492,23.168,16.915,34.426,25.798c2.494,1.968,5.02,3.944,7.535,5.954c2.499-3.605,4.821-7.286,7.011-11.02
	C325.418,264.338,323.855,263.32,322.309,262.309z"/>
<path fill="#F2E7B8" d="M285.854,234.836c12.125,7.505,24.423,14.766,36.365,22.557c2.271,1.481,4.544,2.938,6.835,4.356
	c4.162-7.517,11.142-22.864,7.446-24.271C322.75,232.291,309.038,225.33,295,221c-21.579-6.658-62.339-22.291-83.705-29.71
	C229.102,201.057,268.533,224.118,285.854,234.836z"/>
<path fill="#F2E7B8" d="M206.143,200.014c7.998,8.303,15.52,17.039,23.338,25.537c9.92,10.78,20.481,20.945,31.033,31.1
	c10.25,9.869,20.37,19.855,30.25,30.094c3.737,3.874,7.566,7.59,11.454,11.23c2.921-3.025,5.765-6.164,8.497-9.447
	c-2.99-2.508-5.986-5.006-8.972-7.521c-11.114-9.372-22.228-18.747-33.261-28.215c-20.666-17.734-41.529-35.258-61.95-53.277
	c-0.13,0.164-0.255,0.334-0.388,0.496C206.145,200.011,206.143,200.012,206.143,200.014z"/>
<path fill="#F2E7B8" d="M298.427,301.781c-3.683-3.719-7.245-7.536-10.78-11.225c-9.856-10.281-19.905-20.347-30.019-30.375
	c-18.784-18.635-36.44-37.887-53.095-58.377c-0.197,0.207-3.174,2.635-1.735,1.758c15.271,21.754,26.896,43.383,41.702,65.188
	c10.852,15.979,23.116,29.986,33.605,46.277C279.82,317.076,292.471,307.577,298.427,301.781z"/>
<path fill="#F2E7B8" d="M203.523,211.111c4.389,6.621,8.427,13.468,12.201,20.455c7.611,14.086,14.41,28.651,21.254,43.123
	c7.002,14.804,13.84,29.697,20.319,44.737c1.388,3.222,2.769,6.448,4.175,9.664c4.18-2.29,11.944-8.532,10.563-10.791
	c-2.527-4.521-3.2-5.702-5.779-9.942c-7.425-12.211-14.75-24.479-22.153-36.702c-13.705-22.634-29.256-44.074-42.944-66.714
	c-0.341,0.274-0.693,0.527-1.04,0.789C201.35,207.627,202.473,209.525,203.523,211.111z"/>
<path fill="#F2E7B8" d="M254.882,322.253c-6.174-14.427-12.636-28.737-19.174-43.003c-6.638-14.482-13.217-29.064-20.507-43.234
	c-3.596-6.99-7.176-13.996-11.275-20.709c-0.55-0.899-1.104-1.797-1.662-2.69c4.104,9.873,7.613,20.056,11.74,29.872
	c5.659,13.457,11.648,26.771,17.859,39.984c6.023,12.814,11.972,25.674,18.082,38.449c1.816,3.807,3.738,7.535,5.703,11.234
	c0.963-0.48,1.914-0.986,2.871-1.487C257.294,327.869,256.084,325.062,254.882,322.253z"/>
<path fill="#F2E7B8" d="M195.706,211.664c10.087,24.334,16.144,50.094,23.377,75.369c4.076,14.248,9.052,28.23,13.403,42.396
	c1.13,3.678,2.271,7.363,3.346,11.066c4.686-1.639,9.314-3.473,13.863-5.521c-1.635-3.461-3.215-6.914-4.795-10.271
	c-6.008-12.767-10.34-27.351-16.15-40.203c-6.27-13.871-12.592-28.365-18.25-42.5c-4.746-11.854-9.58-21.915-14.127-33.829
	c-0.382,0.214-0.766,0.43-1.156,0.629C195.396,209.751,195.549,210.71,195.706,211.664z"/>
<path fill="#F2E7B8" d="M229.945,332.436c-4.312-14.217-9.199-28.291-13.139-42.621c-6.451-23.465-15.791-57.061-23.718-80.063
	c1.16,7.468,4.613,28.847,5.558,36.347c2.072,16.455,5.369,28.893,7.696,45.312c2.365,16.686,5.185,33.302,7.655,49.97
	c0.248,1.675,0.284,1.183,0.501,2.862c0.39,2.093,12.235-0.723,18.138-2.655C231.771,338.527,230.869,335.479,229.945,332.436z"/>
<path fill="#F2E7B8" d="M195.096,300.729c1.521,16.017,3.332,32.074,4.676,48.147c3.076-0.374,9.444-1.528,8.979-3.524
	c-0.171-1.209-0.578-3.604-0.749-4.812c-2.369-16.688-4.537-29.991-6.737-46.702c-2.168-16.441-3.867-32.938-5.779-49.412
	c-0.95-8.189-1.911-16.383-3.01-24.555c-0.414-3.091-0.775-6.219-1.254-9.325c-1.475,0.535-2.988,0.955-4.519,1.291
	C190.896,241.303,192.287,271.118,195.096,300.729z"/>
<path fill="#F2E7B8" d="M182.665,251.152c-1.565,15.714-2.974,31.428-4.224,47.168c-1.362,17.177-2.007,31.006-3.323,48.274
	c-0.316,2.164,13.286,3.413,20.075,2.771c-0.045-0.651-0.084-1.306-0.133-1.957c-1.113-15.446-2.647-30.853-3.912-46.284
	c-2.42-29.622-4.33-59.325-5.824-89.012c-0.398,0.07-0.799,0.121-1.197,0.182C184.9,225.253,183.952,238.236,182.665,251.152z"/>
<path fill="#F2E7B8" d="M178.993,230.031c-1.309,9.074-2.665,18.142-4.021,27.208c-2.697,18.03-4.856,36.13-7.353,54.188
	c-1.742,12.599-3.348,25.271-5.283,37.867c2.967,0.285,9.159,0.151,9.238-1.721c1.488-16.698,2.756-31.032,4.107-47.709
	c1.28-15.812,2.74-31.577,4.431-47.347c1.428-13.309,2.64-26.644,2.542-40.025c-0.473,0.052-0.945,0.088-1.418,0.121
	C181.1,218.465,179.833,224.218,178.993,230.031z"/>
<path fill="#F2E7B8" d="M164.419,312.896c2.62-18.033,4.961-36.104,7.849-54.1c1.454-9.049,2.275-15.74,3.808-24.775
	c0.111-0.66,2.472-20.332,2.595-20.99c-0.107,0.412-3.73,16.674-3.839,17.089c-2.69,10.206-5.578,20.792-8.376,30.973
	c-5.496,19.993-9.047,40.333-15.481,60.044c-2.738,8.389-5.569,16.742-8.438,25.08c5.479,1.196,11.002,2.098,16.544,2.735
	C160.997,336.953,162.675,324.902,164.419,312.896z"/>
<path fill="#F2E7B8" d="M342.295,224.967c-6.591-2.34-13.134-4.811-19.728-7.145c-13.828-4.896-27.851-9.305-41.919-13.459
	c-13.596-4.016-27.412-7.127-41.035-11.006c-2.439-0.694-4.873-1.375-7.309-2.032c-2.475-0.509-4.929-1.091-7.337-1.796
	c-0.309-0.092-0.614-0.194-0.923-0.288c-3.742-0.873-7.506-1.632-11.316-2.2c-0.403,1.527-0.363,1.066-0.978,2.54
	c29.362,8.063,57.563,20.384,86.74,29.079c14.322,4.269,15.504,6.85,29.508,12.09c0.212,0.079,8.788,2.422,9,2.5
	c3.277,0.702,6.307-5.327,6.966-7.655C343.406,225.376,342.85,225.162,342.295,224.967z"/>
<path fill="#F2E7B8" d="M277.896,200.169c13.614,3.866,27.168,8.034,40.562,12.618c8.772,3.001,17.492,6.699,26.347,9.736
	c1.478-5.627,4.374-17.143,0.69-17.57c-3.87-0.598-4.877-0.6-8.778-1.098c-15.182-1.935-30.16-5.655-45.361-7.438
	c-11.168-1.31-66.416-10.812-77.611-11.885C220.534,186.206,271.16,198.253,277.896,200.169z"/>
<path fill="#F2E7B8" d="M333.155,183.214c-14.661-1.207-29.382-1.17-44.081-1.366c-14.314-0.191-28.525-1.203-42.816-1.898
	c-7.682-0.375-15.395-0.621-23.084-0.339c-3.113,0.115-6.24,0.376-9.365,0.543c-0.019,0.309-0.017,0.617-0.043,0.926
	c4.012,1.036,7.969,2.259,12.041,3.127c6.9,1.472,13.871,2.638,20.892,3.362c20.036,2.065,33.85,5.421,43.803,6.432
	c15.228,1.545,29.813,4.373,45,6.25c4.479,0.555,7.054,0.083,11.5,0.75c2.418,0.2,3.125-11.496,3.28-15.973
	C344.5,184.406,338.75,183.676,333.155,183.214z"/>
<path fill="#F2E7B8" d="M336.25,155.25c-14.839,2.823-29.479,2.954-44.5,4.5c-14.229,1.461-30.205,5.12-44.5,5.75
	c-11.932,0.527-22.376,2.832-34.014,5.63c0.007,0.037,0.017,0.071,0.021,0.108c3.825,0.297,7.661,0.522,11.493,0.593
	c8.331,0.15,16.663-0.078,24.987-0.419c17.871-0.73,35.669-2.319,53.506-3.592c14.295-1.019,28.831-2.308,43.16-1.373
	c1.181,0.076,2.361,0.151,3.544,0.228c-0.288-4.029-0.735-8.048-1.306-12.048C344.536,155.405,340.357,154.469,336.25,155.25z"/>
<path fill="#F2E7B8" d="M331.018,140.945c-14.084,2.15-28.045,4.988-41.955,8.058c-14.289,3.156-28.517,6.603-42.819,9.695
	c-11.364,2.455-22.826,5.38-34.333,7.458c0.219,0.639,0.422,1.284,0.604,1.934c11.045-3.49,22.663-4.309,34.188-5.105
	c14.201-0.985,28.285-2.782,42.423-4.42c15.024-1.741,30.021-3.588,44.867-6.521c4.606-0.91,9.225-1.738,13.844-2.552
	c-0.683-3.94-1.513-7.857-2.467-11.745C340.602,139.083,335.926,140.196,331.018,140.945z"/>
<path fill="#F2E7B8" d="M245.916,155.446c14.879-3.414,29.715-7.007,44.611-10.339c14.556-3.256,29.169-5.703,43.826-8.376
	c3.347-0.609,6.697-1.651,10.066-2.703c-0.494-1.836-1.564-5.829-4.056-4.958c-14.721,3.563-26.976,6.534-41.685,10.142
	c-17.302,4.242-34.455,8.956-51.49,14.167c-5.266,1.61-23.363,7.335-28.69,9.121C223.398,161.451,241.1,156.552,245.916,155.446z"/>
<path fill="#F2E7B8" d="M145.739,299.42c5.695-17.1,11.074-34.307,16.679-51.438c3.792-11.586,8.534-23.531,11.436-35.653
	c-1.084-0.151-4.184-0.729-5.252-0.985c-1.63,4.391-1.657,9.053-3.232,13.396c-3.766,10.379-7.633,20.724-11.714,30.98
	c-8.167,20.532-16.954,40.797-26.107,60.904c-3.352,7.361-5.635,12.343-9.074,19.666c-1.169,1.626,7.475,5.473,11.835,6.768
	C135.63,328.577,140.865,314.061,145.739,299.42z"/>
<path fill="#F2E7B8" d="M107.657,279.814c9.694-12.635,18.845-25.572,27.609-38.865c7.628-11.573,15.162-23.562,24.342-34.03
	c-0.532-0.354-2.567-1.345-3.084-1.733c-23.291,28.578-43.191,59.281-67.107,87.377c-5.721,6.721-10.515,12.273-16.47,18.775
	c1.066,2.381,2.884,4.125,4.882,5.592C87.91,304.672,97.996,292.407,107.657,279.814z"/>
<path fill="#F2E7B8" d="M126.106,287.205c-7.945,13.664-15.628,27.467-23.498,41.175c-0.552,0.963-1.11,1.923-1.665,2.884
	c3.399,1.75,13.474,6.819,14.307,4.486c3.508-7.355,5.093-11.598,8.5-19c8.963-19.477,19.377-39.655,27.5-59.5
	c3.873-9.461,14.56-36.498,15.905-46.66C157.966,231.596,137.548,267.527,126.106,287.205z"/>
<path fill="#F2E7B8" d="M97.66,328.307c7.996-13.691,15.751-27.521,23.882-41.138c15.212-25.468,29.753-50.997,42.025-77.985
	c-0.643-0.313-1.28-0.644-1.907-1c-16.45,23.526-31.251,48.195-48.529,71.131c-9.321,12.373-19.007,24.459-28.768,36.488
	c-0.998,1.229-2.004,2.451-3.011,3.674c5.122,3.571,10.388,6.815,15.764,9.756C97.295,328.922,97.479,328.615,97.66,328.307z"/>
<path fill="#F2E7B8" d="M309.103,88.908c-12.825,8.432-26.148,16.033-39.225,24.06c-6.774,4.159-57.907,35.745-64.413,40.256
	c3.617-1.445,45.756-20.343,49.285-21.973c12.422-5.735,32.23-17.392,44.75-23c6.566-2.943,13.72-5.477,20.25-8.5
	c2.705-1.251,2.618-0.851,5.25-2.25c3.711-1.972-0.355-8.633-0.137-8.713c-2.34-4.062-2.183-3.44-4.878-7.326
	C316.4,83.954,312.808,86.472,309.103,88.908z"/>
<path fill="#F2E7B8" d="M269.514,109.146c13.488-8.331,27.463-16.083,40.414-25.246c2.584-1.828,5.164-3.746,7.77-5.661
	c-2.836-3.892-5.842-7.691-9.034-11.375c-11.17,9.928-22.567,19.61-33.929,29.316c-12.879,11.005-26.568,21.761-39.791,32.353
	c-3.344,2.679-16.754,13.259-20.094,15.944c3.614-1.9,20.358-12.487,26.369-16.827C251.895,119.826,258.223,116.118,269.514,109.146
	z"/>
<path fill="#F2E7B8" d="M216.128,140.284c6.245-5.34,12.573-10.579,18.949-15.763c13.171-10.709,25.927-21.897,38.802-32.959
	c10.713-9.206,21.523-18.338,32.047-27.774c-2.137-2.349-5.99-6.522-9.79-3.654c-3.091,3.188-2.911,3.229-6.116,6.182
	c-10.502,9.672-21.422,18.847-32.222,28.181c-11.578,10.009-22.524,20.546-33.134,31.573c-7.324,7.612-16.155,15.067-24.094,22.185
	c1.787,0.844,3.875,2.958,4.764,3.745C207.05,150.437,214.357,141.8,216.128,140.284z"/>
<path fill="#F2E7B8" d="M215.119,114.114c7.413-12.898,14.818-25.797,22.339-38.633c7.478-12.759,14.812-25.572,21.274-38.881
	c1.197-2.466,2.466-4.896,3.76-7.314c-5.209-2.905-15.586-8.272-17.59-3.453c-5.604,15.607-10.025,26.684-15.776,42.229
	c-5.601,15.134-10.405,30.542-16.327,45.559c-1.962,4.978-3.99,9.931-6.064,14.869C209.518,123.677,212.366,118.905,215.119,114.114
	z"/>
<path fill="#F2E7B8" d="M278.84,40.944c-4.16,5.742-8.758,11.132-13.229,16.631c-9.854,12.115-19.645,24.311-28.635,37.089
	c-8.963,12.74-17.705,25.628-26.733,38.324c-0.955,1.342-1.923,2.677-2.896,4.013c-0.533,0.854-4.561,6.149-5.098,6.999
	c6.395-6.965,18.314-17.172,24.75-24c9.883-10.49,20.682-19.732,31.5-29.25c10.657-9.377,14.57-15.225,24.578-25.31
	c2.367-2.385,5.723-5.612,8.148-8.191c4.67-3.933-1.027-8.751-3.67-10.913c-2.66-2.173-5.367-4.247-8.115-6.232
	C279.242,40.386,279.042,40.666,278.84,40.944z"/>
<path fill="#F2E7B8" d="M233.229,17.927c-4.146,16.093-7.584,32.359-11.799,48.433c-4.022,15.329-10.339,30.291-15.453,45.277
	c-2.524,7.395-7.662,26.733-9.631,34.297c2.961-7.327,10.629-25.341,13.422-32.734c5.707-15.117,9.515-31.873,14.976-47.075
	c5.593-15.568,9.968-26.729,15.516-42.311c1.144-4.557-3.856-6.342-6.634-7.272C233.482,17.009,233.346,17.474,233.229,17.927z"/>
<path fill="#F2E7B8" d="M203.438,111.952c4.986-15.348,10.367-30.504,14.307-46.172c3.895-15.49,7.132-31.135,11.04-46.62
	c0.315-1.253,0.704-2.527,1.124-3.814c-5.576-1.728-19.475-4.921-20.157,0.655c-1.155,13.146-2.28,20.166-4,33.25
	c-2.401,18.289-5.099,37.958-7.5,56.25c-1.146,8.725-2.407,29.489-3.25,38.25C196.619,137.199,201.352,118.371,203.438,111.952z"/>
<path fill="#F2E7B8" d="M193.805,12.719c-0.568,16.823-1.057,33.647-1.643,50.469c-0.547,15.667-1.406,31.275-2.457,46.915
	c-0.539,8.015-1.025,16.049-1.048,24.085c-0.011,3.412-0.104,6.393,0.065,9.797c0.898,0.262,2.881,0.307,3.764,0.641
	c0.621-5.365-0.485-10.385-0.07-15.526c0.725-8.946,1.637-17.873,2.721-26.782c2.076-17.055,4.85-34.011,6.969-51.057
	c1.713-13.779,2.492-23.114,3.621-36.951c0.068-6.403-7.67-5.629-11.773-5.982C193.9,9.792,193.852,11.254,193.805,12.719z"/>
<path fill="#F2E7B8" d="M186.963,109.672c0.846-16.819,1.426-33.63,1.866-50.464c0.444-16.989,0.769-33.984,1.317-50.972
	c0.002-0.058,0.002-0.115,0.004-0.172c-3.213-0.204-6.43-0.35-9.645-0.372c0.612,11.309-0.368,22.757,0.244,34.065
	c1.438,26.542,3.746,74.737,5.115,101.282C186.076,139.113,186.771,113.452,186.963,109.672z"/>
<path fill="#F2E7B8" d="M260.846,137.629c-13.507,5.281-14.857,6.373-28.014,12.483c-1.535,0.713-21.07,9.512-22.727,10.391
	c0.324,1.185,0.662,2.144,1.229,3.043c8.207-3.359,27.692-8.674,36.164-11.295c16.401-5.074,37.333-12.133,54-16.25
	c13.562-3.349,23.007-8.312,36.575-11.628c3.253-1.215-1.829-13.82-3.814-18.059C310.163,116.934,285.305,128.062,260.846,137.629z"
	/>
<path fill="#F2E7B8" d="M234.907,146.458c13.058-5.559,17.065-8.358,30.26-13.59c23.177-9.189,45.386-18.355,67.833-29.118
	c-0.351-0.702-2.144-3.359-4.797-3.703c-1.35-0.086-3.804,0.988-4.675,1.403c-6.468,3.085-8.771,4.579-15.346,7.424
	c-13.803,5.976-97.609,44.757-100.833,45.859c0.354,0.383,1.715,3.906,2.051,4.3C215.477,156.421,228.956,148.992,234.907,146.458z"
	/>
<path fill="#F2E7B8" d="M173.396,52.212c2.085,17.531,3.035,36.432,4.354,54.038c0.958,12.796,2.684,24.338,5.045,36.952
	c0.028,0.002,0.059,0.003,0.086,0.005c-4.011-36.048-2.939-71.776-5.131-107.957c-0.541-8.94,1.024-18.309,0.5-27.25
	c-2.026,0.064-8.517-0.063-10.538,0.072C169.669,22.778,171.646,37.481,173.396,52.212z"/>
<path fill="#F2E7B8" d="M178.514,134.312c-1.2-8.446-2.042-16.931-2.802-25.425c-1.568-17.53-3.271-35.036-5.443-52.502
	c-1.992-16.019-4.183-32.013-6.342-48.01c-4.004,0.357-14.953,1.412-14.177,7.375c3.512,14.961,5.112,22.404,8,37.5
	c3.277,17.132,5.923,25.776,8.986,42.95c1.474,8.269,4.547,23.149,5.766,31.461c0.582,3.971,1.569,11.271,2.26,15.152
	c1.015-0.065,4.129,0.184,5.146,0.207C179.323,140.102,178.917,137.147,178.514,134.312z"/>
<path fill="#F2E7B8" d="M141.286,208.057c-4.88,5.051-9.629,10.221-14.396,15.375c-9.757,10.558-19.337,21.277-28.972,31.944
	c-9.554,10.577-18.938,21.308-28.522,31.856c-3.804,4.188-7.6,8.44-11.454,12.648c2.286,2.284,8.071,7.417,11.307,6.618
	c6-0.25,9.385-8.322,15.5-15.5c12.755-14.972,26.075-31.308,38.25-46.75c10.291-13.056,20.337-28.825,31.607-41.133
	c-0.73-0.868-3.201-3.806-4.359-5.521C147.645,201.366,144.528,204.699,141.286,208.057z"/>
<path fill="#F2E7B8" d="M136.625,201.905c-6.27,4.323-12.428,8.797-18.434,13.479c-11.928,9.3-23.392,19.175-35.362,28.421
	c-11.714,9.047-23.743,17.709-36.259,25.619c-3.026,1.912-4.717,2.895-7.797,4.719c-2.145,1.045,8.417,14.233,14.11,20.437
	c3.368,2.171,7.551-2.86,11.618-7.329c9.159-10.066,17.271-17.999,26.5-28c9.757-10.573,23.795-27.363,33.75-37.75
	c7.435-7.757,16.177-18.417,23.133-26.77C145,196.844,139.108,200.191,136.625,201.905z"/>
<path fill="#F2E7B8" d="M69.73,236.914c-13.994,7.273-28.168,14.324-41.866,22.16c2.153,4.07,6.463,12.08,9.053,10.753
	c3.06-1.755,4.001-2.308,6.977-4.183c12.006-7.56,23.658-15.668,34.941-24.271c15.393-11.738,27.053-19.499,34.717-25.358
	c1.372-1.05,15.18-11.276,16.561-12.313C114.517,212.493,85.647,228.639,69.73,236.914z"/>
<path fill="#F2E7B8" d="M72.25,217.25c-14.482,4.229-29.665,9.826-44.01,14.506c-3.553,1.159-4.854,1.516-8.465,2.689
	c-3.253,1.216,0.668,9.669,1.975,12.805c3.824-1.512,4.976-2.622,9.5-4.5c13.267-5.506,26.664-11.078,39.75-17
	c9.604-4.346,57.108-26.238,66.75-30.5C128.395,198.292,81.702,214.49,72.25,217.25z"/>
<path fill="#F2E7B8" d="M29.791,226.436c14.001-4.313,28.214-7.967,42.288-12.039c14.267-4.127,28.446-8.42,42.448-13.381
	c6.543-2.315,13.067-4.687,19.642-6.912c3.674-1.244,7.533-2.235,11.287-3.418c0.344-0.174,0.69-0.34,1.028-0.521
	c-0.074-0.198-0.154-0.393-0.223-0.593c-1.725,0.485-3.544,0.792-5.237,1.128c-7.997,1.583-16.462,1.348-24.523,2.551
	c-15.599,2.324-31.311,5.088-47,6.75c-15.45,1.639-30.35,4.196-45.797,5.88c-4.459,0.485-8.917,1.009-13.368,1.586
	c1.328,7.867,3.52,23.755,8.532,22.362C23.464,228.427,25.152,227.864,29.791,226.436z"/>
<path fill="#F2E7B8" d="M57.552,192.921c-16.265,0.849-32.51,1.906-48.764,2.933c0.224,2.242,0.49,4.479,0.8,6.709
	c3.35-0.427,6.702-0.823,10.059-1.183c14.268-1.521,28.574-2.604,42.861-3.915c14.98-1.375,29.814-3.473,44.723-5.424
	c7.441-0.975,14.887-1.926,22.319-2.971c3.715-0.523,7.449-1.01,11.139-1.689c1.428-0.263,3.087-0.389,4.694-0.688
	c-0.2-0.768-0.377-1.541-0.531-2.316C116.455,191.029,86.529,191.415,57.552,192.921z"/>
<path fill="#F2E7B8" d="M11.762,191.125c15.793-0.948,31.587-1.764,47.395-2.477c28.376-1.274,57.373-1.868,85.338-7.403
	c-0.002-0.021-0.007-0.041-0.01-0.062c-5.568,0.107-11.148,0.615-16.714,0.481c-8.768-0.211-17.533-0.499-26.296-0.862
	c-17.571-0.729-35.157-1.475-52.696-2.772c-13.625-1.007-23.831-1.979-37.411-3.479c-5.119,0.336-3.322,11.104-2.874,16.749
	C9.583,191.242,10.67,191.191,11.762,191.125z"/>
<path fill="#F2E7B8" d="M137.122,175.645c-6.867-0.98-13.753-1.823-20.636-2.702c-13.884-1.776-27.638-4.02-41.298-7.093
	c-21.783-4.901-43.2-10.909-64.623-17.038C9.415,155.303,6.432,171.721,12.5,172c11.942,1.46,18.421,2.264,30.25,3.25
	c18.77,1.563,38.954,2.079,57.75,3.25c9.795,0.609,20.958,0.622,30.75,1.25c4.772,0.308,8.2-2.348,12.964-2.173
	c0.001-0.117,0.007-0.234,0.009-0.351C141.81,176.661,139.411,175.973,137.122,175.645z"/>
<path fill="#F2E7B8" d="M33.229,151.802c13.504,3.597,26.993,7.284,40.595,10.496c13.639,3.221,27.336,5.742,41.213,7.711
	c6.861,0.974,13.735,1.9,20.583,2.984c2.893,0.458,5.388,1.61,8.292,2.375c0.017-0.227,0.488-3.389,0.509-3.615
	c-11.833-2.156-23.594-6.003-35.162-9.131c-16.211-4.381-33.189-8.664-49.49-12.689c-16.186-3.998-27.204-7.234-43.177-12.007
	c-3.369-0.817-4.977,5.441-5.303,7.066C18.619,147.275,25.9,149.85,33.229,151.802z"/>
<path fill="#F2E7B8" d="M134.666,18.282c4.804,14.971,9.032,30.116,13.456,45.201c5.631,19.202,17.472,61.184,23.453,80.309
	c-0.775-3.976-6.063-31.06-6.822-35.038c-3.275-17.162-8.186-33.944-11.593-51.077c-3.075-15.452-6.198-28.27-9.902-43.58
	c-0.565-3.853-6.87-1.014-10.009-0.138C133.724,15.396,134.201,16.837,134.666,18.282z"/>
<path fill="#F2E7B8" d="M137.03,70.897c-6.281-17.163-13.438-34.317-19.553-51.728c-3.736,1.44-7.435,2.999-11.077,4.705
	c0.176,0.357,0.35,0.715,0.526,1.072c6.497,13.146,12.796,26.358,19.007,39.641c12.758,27.286,26.049,54.312,40.199,80.902
	c0.183-0.073,0.37-0.135,0.555-0.205C153.089,122.107,146.208,95.975,137.03,70.897z"/>
<path fill="#F2E7B8" d="M123.371,67.592C116.72,53.797,110.08,40.02,103.23,26.323c-0.123-0.247-0.246-0.494-0.37-0.74
	c-3.485,1.732-10.294,3.904-8.533,9.058c11.14,16.486,19.474,30.28,29.349,47.362c12.645,21.878,25.011,43.915,37.489,65.886
	c1.062-0.621,2.158-1.171,3.27-1.679C149.582,120.637,136.212,94.228,123.371,67.592z"/>
<path fill="#F2E7B8" d="M60.118,131.975c-13.077-6.036-26.453-11.769-39.296-18.338c-2.597,6.284-8.806,18.721-2.868,20.346
	c14.493,4.4,25.277,7.479,39.946,11.26c27.241,7.026,54.171,15.243,81.409,22.263C112.387,156.962,86.337,144.076,60.118,131.975z"
	/>
<path fill="#F2E7B8" d="M59.927,127.594c28.591,13.374,56.771,27.63,85.661,40.354c0.163-0.551,0.334-1.102,0.52-1.647
	c-26.508-14.785-52.546-30.459-79.189-44.984c-13.238-7.219-26.133-14.974-38.939-22.875c-2.007,3.76-3.851,7.578-5.555,11.437
	C34.657,116.255,47.468,121.767,59.927,127.594z"/>
<path fill="#F2E7B8" d="M80.886,44.841c9.601,13.029,19.182,26.071,28.778,39.102c9.549,12.962,18.83,26.102,28.245,39.161
	c4.501,6.246,6.242,7.102,11.083,13.091c2.229,2.757,8.245,9.873,10.587,12.777c0.157-0.131,0.307-0.269,0.466-0.396
	c-13.756-21.872-27.394-43.111-40.64-65.29c-9.983-16.715-18.708-30.342-29.589-46.369c-2.208-3.419-8.383,1.856-11.613,4.294
	C79.1,42.419,79.993,43.628,80.886,44.841z"/>
<path fill="#F2E7B8" d="M82.564,72.545c8.746,9.188,17.511,18.395,25.819,27.985c10.61,12.248,39.276,45.098,47.613,50.531
	c-1.814-3.139-13.25-17.22-15.449-20.235c-9.866-13.532-23.174-31.362-33.228-44.754C97.212,72.606,87.347,59.458,77.231,46
	c-0.489-0.651-1.261-2.384-1.751-3.03c-3.021,2.375-9.292,7.27-12.173,9.87C69.34,59.735,76.313,65.979,82.564,72.545z"/>
<path fill="#F2E7B8" d="M97.003,98.465c18.404,19.005,37.083,37.641,56.74,55.302c0.189-0.192,0.373-0.39,0.564-0.578
	c-16.008-17.111-31.837-34.373-47.435-51.862c-9.117-10.223-18.594-20.122-28.128-29.954c-5.42-5.589-11.784-10.995-17.059-17.053
	c-1.478,1.396-5.176,4.459-2.29,6.656C73.427,73.487,84.181,85.223,97.003,98.465z"/>
<path fill="#F2E7B8" d="M89.578,106.59c20.575,16.62,39.387,35.656,61.423,50.41c0.317-0.43,0.626-0.866,0.968-1.282
	c0.068-0.083,0.141-0.158,0.209-0.24c-20.121-17.014-38.927-35.423-57.505-54.163C83.867,90.413,73.215,79.324,61.932,68.909
	c-2.582-2.383-3.625-3.078-6.276-5.334c-2.674-1.864-6.654,3.991-9.074,6.951c-0.592,0.725-1.171,1.455-1.75,2.186
	C60.237,83.375,75.173,94.953,89.578,106.59z"/>
<path fill="#F2E7B8" d="M87.081,109.645C72.372,98.097,56.972,87.543,41.723,76.778c-1.073,1.447-2.127,2.903-3.15,4.373
	c3.982,2.832,7.873,5.756,11.704,8.489c10.162,7.251,20.312,14.522,30.458,21.796c22.687,16.269,45.281,32.695,68.31,48.48
	c0.363-0.617,0.76-1.218,1.165-1.814C127.292,144.357,108.014,126.077,87.081,109.645z"/>
</svg>
